<svg version="1.0" xmlns="http://www.w3.org/2000/svg" width="202.667" height="202.667" viewBox="0 0 152 152"><path d="M40.1 52.3c-1.3.6-3.4 2.5-4.5 4-1.9 2.5-2.1 4.4-2.4 18-.2 13 0 15.7 1.5 18.7 4.6 9 20.5 9.4 24.6.7.9-1.9 1.7-5.3 1.7-7.6V82H51v4.3c0 4.6-1.3 6.7-4.2 6.7-3 0-3.8-3.5-3.8-17.5S43.8 58 46.8 58c2.9 0 4.2 2.1 4.2 6.7V69h10v-4.1c0-5.8-2.7-10.9-6.6-12.5-4.1-1.7-11.1-1.8-14.3-.1zM69.1 73.8c-2.5 11.9-4.7 22.5-4.9 23.5-.4 1.6.1 1.8 4.4 1.5l4.9-.3.9-4.8c.8-4.7.9-4.7 4.7-4.7 4.1 0 4.4.4 5.1 7 .3 2.2.8 2.5 5.2 2.8 4.6.3 4.8.2 4.3-2-.3-1.3-2.5-11.9-4.8-23.6L84.7 52H73.5l-4.4 21.8zm12.8 7.9c.1.8-1.1 1.3-3 1.3-2.4 0-2.9-.4-2.5-1.8.2-.9.8-4.2 1.1-7.2.4-3 1-6 1.3-6.5.5-.8 2.9 10.2 3.1 14.2zM93 55.5c0 3.3.2 3.5 3.5 3.5h3.5v40h11V59h3.5c3.3 0 3.5-.2 3.5-3.5V52H93v3.5z"/></svg>